<?xml version="1.0" encoding="UTF-8" standalone="no"?>
<!-- Created with Inkscape (http://www.inkscape.org/) -->

<svg
   width="26.341221mm"
   height="10.702383mm"
   viewBox="0 0 26.341221 10.702383"
   version="1.1"
   id="svg1"
   inkscape:version="1.3.2 (091e20e, 2023-11-25)"
   sodipodi:docname="Tamagotchi_sketch_v3.svg"
   xmlns:inkscape="http://www.inkscape.org/namespaces/inkscape"
   xmlns:sodipodi="http://sodipodi.sourceforge.net/DTD/sodipodi-0.dtd"
   xmlns="http://www.w3.org/2000/svg"
   xmlns:svg="http://www.w3.org/2000/svg">
  <sodipodi:namedview
     id="namedview1"
     pagecolor="#ffffff"
     bordercolor="#000000"
     borderopacity="0.25"
     inkscape:showpageshadow="2"
     inkscape:pageopacity="0.0"
     inkscape:pagecheckerboard="0"
     inkscape:deskcolor="#d1d1d1"
     inkscape:document-units="mm"
     inkscape:zoom="0.53508856"
     inkscape:cx="2076.2918"
     inkscape:cy="2504.2583"
     inkscape:window-width="1512"
     inkscape:window-height="851"
     inkscape:window-x="252"
     inkscape:window-y="1118"
     inkscape:window-maximized="0"
     inkscape:current-layer="layer1" />
  <defs
     id="defs1" />
  <g
     inkscape:label="Layer 1"
     inkscape:groupmode="layer"
     id="layer1"
     transform="translate(-460.96968,-709.08781)">
    <path
       id="path119"
       style="fill:#241f21;fill-opacity:1;fill-rule:evenodd;stroke:#241f21;stroke-width:1.57774;stroke-linecap:round;stroke-miterlimit:11.6;stroke-dasharray:none;stroke-opacity:1;paint-order:fill markers stroke"
       d="m 475.41419,718.31133 c -6.12676,0.28121 -10.64833,-1.36146 -11.10403,-3.68198 -0.45567,-2.32052 3.32708,-4.44016 9.45381,-4.72136 6.12678,-0.2812 12.27742,1.38251 12.73311,3.70303 0.45569,2.32052 -4.95614,4.41911 -11.08289,4.70031 z"
       sodipodi:nodetypes="sssss" />
    <path
       id="path120"
       style="fill:#f1f8d4;fill-opacity:1;fill-rule:evenodd;stroke:#241f21;stroke-width:0.374047;stroke-linecap:round;stroke-miterlimit:11.6;stroke-dasharray:none;stroke-opacity:1;paint-order:fill markers stroke"
       d="m 479.79879,714.62228 c -1.00995,0.0959 -1.75531,-0.46422 -1.83042,-1.25546 -0.0751,-0.79123 0.54844,-1.51397 1.55839,-1.60984 1.00996,-0.0959 2.02385,0.47139 2.09897,1.26262 0.0751,0.79124 -0.81699,1.5068 -1.82694,1.60268 z"
       sodipodi:nodetypes="sssss" />
    <path
       id="path121"
       style="fill:#241f21;fill-opacity:1;fill-rule:evenodd;stroke:#241f21;stroke-width:0.65174;stroke-linecap:round;stroke-miterlimit:11.6;stroke-dasharray:none;stroke-opacity:1;paint-order:fill markers stroke"
       d="m 464.67224,714.65585 c 0.13352,2.60588 -0.50874,4.55783 -1.43632,4.78807 -0.92757,0.23025 -1.78919,-1.34838 -1.92272,-3.95426 -0.13355,-2.60589 0.51158,-5.25222 1.43916,-5.48247 0.92758,-0.23025 1.78634,2.04278 1.91988,4.64866 z"
       sodipodi:nodetypes="sssss" />
  </g>
</svg>
