<?xml version="1.0" encoding="UTF-8" standalone="no"?>
<!-- Created with Inkscape (http://www.inkscape.org/) -->

<svg
   width="64.294991mm"
   height="35.329174mm"
   viewBox="0 0 64.294991 35.329174"
   version="1.1"
   id="svg1"
   inkscape:version="1.3.2 (091e20e, 2023-11-25)"
   sodipodi:docname="Tamagotchi_sketch_v3.svg"
   xmlns:inkscape="http://www.inkscape.org/namespaces/inkscape"
   xmlns:sodipodi="http://sodipodi.sourceforge.net/DTD/sodipodi-0.dtd"
   xmlns="http://www.w3.org/2000/svg"
   xmlns:svg="http://www.w3.org/2000/svg">
  <sodipodi:namedview
     id="namedview1"
     pagecolor="#ffffff"
     bordercolor="#000000"
     borderopacity="0.25"
     inkscape:showpageshadow="2"
     inkscape:pageopacity="0.0"
     inkscape:pagecheckerboard="0"
     inkscape:deskcolor="#d1d1d1"
     inkscape:document-units="mm"
     inkscape:zoom="0.53508856"
     inkscape:cx="2076.2918"
     inkscape:cy="2504.2583"
     inkscape:window-width="1512"
     inkscape:window-height="851"
     inkscape:window-x="252"
     inkscape:window-y="1118"
     inkscape:window-maximized="0"
     inkscape:current-layer="layer1" />
  <defs
     id="defs1" />
  <g
     inkscape:label="Layer 1"
     inkscape:groupmode="layer"
     id="layer1"
     transform="translate(-242.92313,-696.56309)">
    <rect
       style="fill:#f1f8d4;fill-opacity:1;stroke:none;stroke-width:9.09504;stroke-linecap:round;stroke-miterlimit:11.6;stroke-dasharray:none;stroke-opacity:1"
       id="rect160"
       width="64.294998"
       height="35.329182"
       x="242.92314"
       y="696.56311"
       rx="10.44743"
       inkscape:export-filename="../backend/frontend/images/creature-1.svg"
       inkscape:export-xdpi="96"
       inkscape:export-ydpi="96" />
    <path
       id="path160"
       style="fill:#241f21;fill-opacity:1;fill-rule:evenodd;stroke:#241f21;stroke-width:0.677894;stroke-linecap:round;stroke-miterlimit:11.6;stroke-dasharray:none;stroke-opacity:1;paint-order:fill markers stroke"
       d="m 276.33217,716.94759 c -1.55848,0.20409 -2.70864,-0.98807 -2.82455,-2.6722 -0.11591,-1.68412 0.84631,-3.22244 2.40478,-3.42652 1.55848,-0.20409 3.12303,1.00336 3.23895,2.68747 0.11591,1.68412 -1.26071,3.20717 -2.81918,3.41125 z"
       sodipodi:nodetypes="sssss"
       inkscape:export-filename="../backend/frontend/images/creature-1.svg"
       inkscape:export-xdpi="96"
       inkscape:export-ydpi="96" />
    <path
       id="path161"
       style="fill:#f1f8d4;fill-opacity:1;fill-rule:evenodd;stroke:#241f21;stroke-width:0.374047;stroke-linecap:round;stroke-miterlimit:11.6;stroke-dasharray:none;stroke-opacity:1;paint-order:fill markers stroke"
       d="m 276.86387,714.94017 c -1.00995,0.0959 -1.75531,-0.46422 -1.83042,-1.25546 -0.0751,-0.79123 0.54845,-1.51397 1.55839,-1.60984 1.00996,-0.0959 2.02385,0.47139 2.09897,1.26262 0.0751,0.79124 -0.81699,1.5068 -1.82694,1.60268 z"
       sodipodi:nodetypes="sssss" />
    <path
       id="path162"
       style="fill:#241f21;fill-opacity:1;fill-rule:evenodd;stroke:#241f21;stroke-width:0.379025;stroke-linecap:round;stroke-miterlimit:11.6;stroke-dasharray:none;stroke-opacity:1;paint-order:fill markers stroke"
       d="m 273.53271,713.93478 c 0.0616,1.91024 -0.23472,3.34113 -0.66268,3.5099 -0.42795,0.16879 -0.82548,-0.98843 -0.88709,-2.89868 -0.0616,-1.91025 0.23603,-3.85015 0.66399,-4.01894 0.42796,-0.16878 0.82417,1.49747 0.88578,3.40772 z"
       sodipodi:nodetypes="sssss" />
  </g>
</svg>
