<?xml version="1.0" encoding="UTF-8" standalone="no"?>
<!-- Created with Inkscape (http://www.inkscape.org/) -->

<svg
   width="64.294975mm"
   height="35.329174mm"
   viewBox="0 0 64.294975 35.329174"
   version="1.1"
   id="svg1"
   inkscape:version="1.3.2 (091e20e, 2023-11-25)"
   sodipodi:docname="Tamagotchi_sketch_v3.svg"
   xmlns:inkscape="http://www.inkscape.org/namespaces/inkscape"
   xmlns:sodipodi="http://sodipodi.sourceforge.net/DTD/sodipodi-0.dtd"
   xmlns="http://www.w3.org/2000/svg"
   xmlns:svg="http://www.w3.org/2000/svg">
  <sodipodi:namedview
     id="namedview1"
     pagecolor="#ffffff"
     bordercolor="#000000"
     borderopacity="0.25"
     inkscape:showpageshadow="2"
     inkscape:pageopacity="0.0"
     inkscape:pagecheckerboard="0"
     inkscape:deskcolor="#d1d1d1"
     inkscape:document-units="mm"
     inkscape:zoom="0.53508856"
     inkscape:cx="2076.2918"
     inkscape:cy="2504.2583"
     inkscape:window-width="1512"
     inkscape:window-height="851"
     inkscape:window-x="252"
     inkscape:window-y="1118"
     inkscape:window-maximized="0"
     inkscape:current-layer="layer1" />
  <defs
     id="defs1" />
  <g
     inkscape:label="Layer 1"
     inkscape:groupmode="layer"
     id="layer1"
     transform="translate(-671.54829,-696.56309)">
    <rect
       style="fill:#f1f8d4;fill-opacity:1;stroke:none;stroke-width:9.09504;stroke-linecap:round;stroke-miterlimit:11.6;stroke-dasharray:none;stroke-opacity:1"
       id="rect154"
       width="64.294998"
       height="35.329182"
       x="671.54828"
       y="696.56311"
       rx="10.44743" />
    <g
       id="g154"
       transform="translate(-2.1765059,-0.44841877)">
      <path
         id="path152"
         style="fill:#241f21;fill-opacity:1;fill-rule:evenodd;stroke:#241f21;stroke-width:3.84283;stroke-linecap:round;stroke-miterlimit:11.6;stroke-dasharray:none;stroke-opacity:1;paint-order:fill markers stroke"
         d="m 706.55563,726.53031 c -12.82766,0.79681 -22.2945,-3.85763 -23.24862,-10.43272 -0.95405,-6.57509 6.96594,-12.58103 19.79356,-13.3778 12.82772,-0.79674 25.70539,3.9173 26.65947,10.4924 0.95409,6.57509 -10.37675,12.52137 -23.20441,13.31812 z"
         sodipodi:nodetypes="sssss"
         inkscape:export-filename="../backend/frontend/images/creature-7.svg"
         inkscape:export-xdpi="96"
         inkscape:export-ydpi="96" />
      <path
         id="path153"
         style="fill:#f1f8d4;fill-opacity:1;fill-rule:evenodd;stroke:#241f21;stroke-width:0.374047;stroke-linecap:round;stroke-miterlimit:11.6;stroke-dasharray:none;stroke-opacity:1;paint-order:fill markers stroke"
         d="m 720.00564,713.23711 c -1.00995,0.0959 -1.75531,-0.46422 -1.83042,-1.25546 -0.0751,-0.79123 0.54844,-1.51397 1.55839,-1.60984 1.00996,-0.0959 2.02385,0.47139 2.09897,1.26262 0.0751,0.79124 -0.81699,1.5068 -1.82694,1.60268 z"
         sodipodi:nodetypes="sssss" />
      <path
         id="path154"
         style="fill:#241f21;fill-opacity:1;fill-rule:evenodd;stroke:#241f21;stroke-width:1.00958;stroke-linecap:round;stroke-miterlimit:11.6;stroke-dasharray:none;stroke-opacity:1;paint-order:fill markers stroke"
         d="m 683.53608,715.26638 c 0.1195,6.98646 -0.45533,12.21971 -1.28552,12.83699 -0.83019,0.61731 -1.60134,-3.61506 -1.72085,-10.60151 -0.11953,-6.98649 0.45786,-14.08141 1.28806,-14.69871 0.83019,-0.61731 1.5988,5.47676 1.71831,12.46323 z"
         sodipodi:nodetypes="sssss" />
    </g>
  </g>
</svg>
